<svg xmlns="http://www.w3.org/2000/svg" width="768" height="325" viewBox="0 0 768 325" version="1.1"><path d="M 130.469 75.250 L 124.500 81.500 130.750 75.531 C 134.188 72.249, 137 69.436, 137 69.281 C 137 68.542, 136.013 69.444, 130.469 75.250 M 198 76.500 C 201.543 80.075, 204.667 83, 204.942 83 C 205.217 83, 202.543 80.075, 199 76.500 C 195.457 72.925, 192.333 70, 192.058 70 C 191.783 70, 194.457 72.925, 198 76.500 M 156.768 76.725 C 158.565 76.947, 161.265 76.943, 162.768 76.715 C 164.271 76.486, 162.800 76.304, 159.500 76.310 C 156.200 76.315, 154.971 76.502, 156.768 76.725 M 130 85.500 C 127.571 87.975, 125.809 90, 126.084 90 C 126.359 90, 128.571 87.975, 131 85.500 C 133.429 83.025, 135.191 81, 134.916 81 C 134.641 81, 132.429 83.025, 130 85.500 M 185 89.500 C 188.543 93.075, 191.667 96, 191.942 96 C 192.217 96, 189.543 93.075, 186 89.500 C 182.457 85.925, 179.333 83, 179.058 83 C 178.783 83, 181.457 85.925, 185 89.500 M 194.556 91.063 C 196.725 93.573, 198.703 95.470, 198.951 95.279 C 199.199 95.088, 197.424 93.034, 195.007 90.716 L 190.611 86.500 194.556 91.063 M 138.462 97.250 L 133.500 102.500 138.750 97.538 C 143.628 92.926, 144.459 92, 143.712 92 C 143.554 92, 141.192 94.362, 138.462 97.250 M 187.500 102 C 191.320 105.850, 194.671 109, 194.946 109 C 195.221 109, 192.320 105.850, 188.500 102 C 184.680 98.150, 181.329 95, 181.054 95 C 180.779 95, 183.680 98.150, 187.500 102 M 98.500 99.313 C 92.633 104.022, 72.621 124.003, 70.211 127.557 C 61.891 139.830, 61.007 160.575, 68.276 173 C 70.500 176.801, 78.804 186.990, 82.946 191 C 84.366 192.375, 88.387 196.650, 91.882 200.500 C 102.854 212.589, 114.187 224.146, 114.633 223.700 C 114.869 223.464, 115.484 221.799, 116 220 C 116.516 218.201, 116.691 216.976, 116.389 217.278 C 116.086 217.580, 114.188 215.954, 112.170 213.664 C 110.151 211.374, 108.004 209.177, 107.398 208.783 C 106.791 208.389, 102.966 204.164, 98.898 199.395 C 94.829 194.626, 89.025 188.194, 86 185.102 C 79.060 178.009, 74.947 172.599, 72.618 167.500 C 69.767 161.258, 69.555 160.084, 69.540 150.500 C 69.516 135.784, 71.580 132.630, 96.367 109.500 C 105.420 101.053, 106.283 99.901, 105.362 97.500 C 104.521 95.308, 102.984 95.714, 98.500 99.313 M 223.958 101.250 C 226.410 103.862, 228.548 106, 228.708 106 C 229.459 106, 228.665 105.102, 224.250 100.958 L 219.500 96.500 223.958 101.250 M 166.500 102.651 C 168.150 103.515, 171.975 106.535, 175 109.361 L 180.499 114.500 175.500 109.172 C 170.919 104.290, 166.305 100.940, 164.300 101.040 C 163.860 101.062, 164.850 101.787, 166.500 102.651 M 132.079 105.034 C 132.036 105.878, 134.588 109.028, 137.750 112.034 L 143.500 117.500 138.368 112 C 135.545 108.975, 132.993 105.825, 132.697 105 C 132.226 103.690, 132.148 103.694, 132.079 105.034 M 228 112.500 C 230.987 115.525, 233.657 118, 233.932 118 C 234.207 118, 231.987 115.525, 229 112.500 C 226.013 109.475, 223.343 107, 223.068 107 C 222.793 107, 225.013 109.475, 228 112.500 M 194.500 116 C 198.874 120.400, 202.678 124, 202.953 124 C 203.228 124, 199.874 120.400, 195.500 116 C 191.126 111.600, 187.322 108, 187.047 108 C 186.772 108, 190.126 111.600, 194.500 116 M 236.958 113.250 C 239.410 115.862, 241.548 118, 241.708 118 C 242.459 118, 241.665 117.102, 237.250 112.958 L 232.500 108.500 236.958 113.250 M 96.789 112.750 C 95.953 113.713, 94.954 115.819, 94.570 117.430 C 94.186 119.042, 91.763 122.669, 89.186 125.491 C 86.609 128.313, 83.214 133.252, 81.643 136.467 C 79.193 141.479, 78.766 143.605, 78.643 151.405 C 78.478 161.922, 79.964 166.126, 87.157 175.484 C 89.546 178.592, 92.543 182.567, 93.819 184.317 C 95.094 186.068, 96.223 187.275, 96.328 187 C 96.433 186.725, 101.013 191.450, 106.507 197.500 C 112 203.550, 117.049 209.085, 117.725 209.799 C 118.402 210.514, 119.392 211.864, 119.925 212.799 C 120.691 214.145, 121.270 214.269, 122.697 213.393 C 126.913 210.804, 126.804 210.646, 103.913 186 C 90.596 171.661, 90.006 170.923, 87.152 165 C 84.958 160.448, 84.504 158.121, 84.515 151.500 C 84.530 142.495, 85.491 140.072, 92.693 130.875 C 96.453 126.075, 97.689 125.171, 101.127 124.710 C 105.761 124.088, 107.936 121.785, 107.936 117.500 C 107.936 113.166, 105.890 111, 101.795 111 C 99.722 111, 97.694 111.709, 96.789 112.750 M 147.765 114.527 C 145.710 116.437, 144.384 118, 144.819 118 C 145.253 118, 147.134 116.425, 149 114.500 C 153.353 110.009, 152.607 110.025, 147.765 114.527 M 144.481 121.250 L 134.500 131.500 144.968 121.500 C 150.726 116, 155.638 111.388, 155.885 111.250 C 156.131 111.112, 155.912 111, 155.398 111 C 154.883 111, 149.971 115.612, 144.481 121.250 M 119 115 C 118.411 116.100, 117.575 117, 117.141 117 C 116.054 117, 106.375 126.557, 101.388 132.555 C 94.883 140.380, 93.619 143.517, 93.556 152 C 93.486 161.319, 96.387 167.675, 104.812 176.672 C 107.940 180.012, 111.949 184.378, 113.719 186.373 C 115.490 188.368, 117.564 190, 118.328 190 C 119.093 190, 121.770 188.194, 124.278 185.986 L 128.838 181.972 134.069 187.986 C 136.946 191.294, 139.692 194, 140.171 194 C 140.651 194, 141.564 192.856, 142.202 191.457 C 143.287 189.075, 142.923 188.473, 136.457 181.957 C 132.660 178.131, 128.980 175, 128.280 175 C 127.579 175, 125.262 176.575, 123.132 178.500 C 121.001 180.425, 118.862 181.999, 118.379 181.997 C 116.812 181.993, 103.343 165.632, 101.093 161 C 98.478 155.614, 98.238 148.944, 100.471 143.672 C 101.420 141.431, 106.845 135.091, 113.558 128.378 C 123.553 118.383, 124.889 116.662, 123.977 114.956 C 122.628 112.436, 120.362 112.456, 119 115 M 205.500 119 C 208.766 122.300, 211.662 125, 211.937 125 C 212.212 125, 209.766 122.300, 206.500 119 C 203.234 115.700, 200.338 113, 200.063 113 C 199.788 113, 202.234 115.700, 205.500 119 M 221.500 124 C 226.979 129.500, 231.687 134, 231.962 134 C 232.237 134, 227.979 129.500, 222.500 124 C 217.021 118.500, 212.313 114, 212.038 114 C 211.763 114, 216.021 118.500, 221.500 124 M 180 121.500 C 183.543 125.075, 186.667 128, 186.942 128 C 187.217 128, 184.543 125.075, 181 121.500 C 177.457 117.925, 174.333 115, 174.058 115 C 173.783 115, 176.457 117.925, 180 121.500 M 228 122.500 C 231.543 126.075, 234.667 129, 234.942 129 C 235.217 129, 232.543 126.075, 229 122.500 C 225.457 118.925, 222.333 116, 222.058 116 C 221.783 116, 224.457 118.925, 228 122.500 M 172 126.500 C 177.203 131.725, 181.685 136, 181.960 136 C 182.235 136, 178.203 131.725, 173 126.500 C 167.797 121.275, 163.315 117, 163.040 117 C 162.765 117, 166.797 121.275, 172 126.500 M 191 124.500 C 193.987 127.525, 196.657 130, 196.932 130 C 197.207 130, 194.987 127.525, 192 124.500 C 189.013 121.475, 186.343 119, 186.068 119 C 185.793 119, 188.013 121.475, 191 124.500 M 179.500 126 C 182.766 129.300, 185.662 132, 185.937 132 C 186.212 132, 183.766 129.300, 180.500 126 C 177.234 122.700, 174.338 120, 174.063 120 C 173.788 120, 176.234 122.700, 179.500 126 M 142.827 135.269 C 132.408 146.034, 129.047 150.133, 129.027 152.097 C 129.006 154.144, 132.002 157.587, 143.169 168.347 C 151.134 176.022, 158.161 182, 159.219 182 C 161.505 182, 166.690 179.420, 167.160 178.049 C 167.347 177.502, 172.295 172.206, 178.155 166.278 C 188.218 156.099, 189.561 154.025, 189.111 149.350 C 189.050 148.718, 186.008 145.343, 182.352 141.850 C 178.696 138.358, 174.308 134.137, 172.602 132.470 C 165.207 125.247, 161.015 121.888, 158.884 121.478 C 157.019 121.119, 154.080 123.643, 142.827 135.269 M 247.957 124.750 C 249.815 127.088, 251.515 129, 251.735 129 C 252.442 129, 248.157 123.373, 246.337 121.911 C 245.370 121.135, 246.100 122.412, 247.957 124.750 M 128.432 125.423 C 124.230 128.395, 111.102 141.700, 109.115 145 C 106.447 149.430, 106.427 154.461, 109.057 159.368 C 111.832 164.546, 121.003 174, 123.251 174 C 127.221 174, 126.159 170.920, 119.609 163.440 C 113.949 156.976, 113 155.347, 113 152.094 C 113 147.990, 112.796 148.252, 125.869 135.596 C 133.167 128.531, 133.985 127.062, 131.682 125.151 C 130.715 124.349, 129.849 124.421, 128.432 125.423 M 212.500 133 C 215.209 135.750, 217.650 138, 217.925 138 C 218.200 138, 216.209 135.750, 213.500 133 C 210.791 130.250, 208.350 128, 208.075 128 C 207.800 128, 209.791 130.250, 212.500 133 M 195 135.500 C 197.987 138.525, 200.657 141, 200.932 141 C 201.207 141, 198.987 138.525, 196 135.500 C 193.013 132.475, 190.343 130, 190.068 130 C 189.793 130, 192.013 132.475, 195 135.500 M 206.500 139 C 208.648 141.200, 210.631 143, 210.906 143 C 211.181 143, 209.648 141.200, 207.500 139 C 205.352 136.800, 203.369 135, 203.094 135 C 202.819 135, 204.352 136.800, 206.500 139 M 342.616 143.003 C 340.627 145.204, 339 147.319, 339 147.703 C 339 148.086, 339.339 147.972, 339.753 147.450 C 340.167 146.928, 342.055 144.813, 343.949 142.750 C 345.843 140.688, 347.131 139, 346.813 139 C 346.494 139, 344.605 140.801, 342.616 143.003 M 581.500 142.630 C 582.050 143.112, 584.299 145.079, 586.498 147.003 L 590.496 150.500 587.498 147.164 C 585.849 145.329, 583.600 143.362, 582.500 142.792 C 581.400 142.222, 580.950 142.149, 581.500 142.630 M 222.286 151.500 C 222.294 154.250, 222.488 155.256, 222.718 153.736 C 222.947 152.216, 222.941 149.966, 222.704 148.736 C 222.467 147.506, 222.279 148.750, 222.286 151.500 M 186.477 163.250 L 178.500 171.500 186.750 163.523 C 194.412 156.115, 195.456 155, 194.727 155 C 194.576 155, 190.864 158.713, 186.477 163.250 M 336.300 160 C 336.300 163.025, 336.487 164.262, 336.716 162.750 C 336.945 161.238, 336.945 158.762, 336.716 157.250 C 336.487 155.738, 336.300 156.975, 336.300 160 M 352.250 155.716 C 353.762 155.945, 356.238 155.945, 357.750 155.716 C 359.262 155.487, 358.025 155.300, 355 155.300 C 351.975 155.300, 350.738 155.487, 352.250 155.716 M 371.750 155.732 C 374.087 155.943, 377.913 155.943, 380.250 155.732 C 382.587 155.522, 380.675 155.349, 376 155.349 C 371.325 155.349, 369.413 155.522, 371.750 155.732 M 202.453 162.250 L 198.500 166.500 202.750 162.547 C 205.088 160.373, 207 158.460, 207 158.297 C 207 157.540, 206.129 158.298, 202.453 162.250 M 417.116 160.198 C 417.008 162.721, 416.660 162.919, 411.750 163.263 L 406.500 163.630 411.781 163.815 C 417.325 164.009, 418.656 162.996, 417.701 159.308 C 417.388 158.103, 417.193 158.399, 417.116 160.198 M 203.462 169.250 L 198.500 174.500 203.750 169.538 C 208.628 164.926, 209.459 164, 208.712 164 C 208.554 164, 206.192 166.363, 203.462 169.250 M 186.469 171.250 L 180.500 177.500 186.750 171.531 C 190.188 168.249, 193 165.436, 193 165.281 C 193 164.542, 192.013 165.444, 186.469 171.250 M 495.760 171.110 C 494.252 173.250, 493.217 175, 493.459 175 C 494.174 175, 499.315 167.979, 498.889 167.583 C 498.675 167.384, 497.267 168.971, 495.760 171.110 M 404.405 170.250 C 402.515 172.482, 402.516 172.487, 404.500 170.824 C 405.600 169.902, 408.300 168.965, 410.500 168.742 L 414.500 168.336 410.405 168.168 C 407.259 168.039, 405.868 168.522, 404.405 170.250 M 210 174.500 C 207.571 176.975, 205.809 179, 206.084 179 C 206.359 179, 208.571 176.975, 211 174.500 C 213.429 172.025, 215.191 170, 214.916 170 C 214.641 170, 212.429 172.025, 210 174.500 M 143 180.500 C 146.543 184.075, 149.667 187, 149.942 187 C 150.217 187, 147.543 184.075, 144 180.500 C 140.457 176.925, 137.333 174, 137.058 174 C 136.783 174, 139.457 176.925, 143 180.500 M 169.971 180.750 L 163.500 187.500 170.250 181.029 C 173.963 177.470, 177 174.432, 177 174.279 C 177 173.543, 175.982 174.480, 169.971 180.750 M 224 178.500 C 221.571 180.975, 219.809 183, 220.084 183 C 220.359 183, 222.571 180.975, 225 178.500 C 227.429 176.025, 229.191 174, 228.916 174 C 228.641 174, 226.429 176.025, 224 178.500 M 151.500 181 C 154.766 184.300, 157.662 187, 157.937 187 C 158.212 187, 155.766 184.300, 152.500 181 C 149.234 177.700, 146.338 175, 146.063 175 C 145.788 175, 148.234 177.700, 151.500 181 M 183 183.500 C 180.571 185.975, 178.809 188, 179.084 188 C 179.359 188, 181.571 185.975, 184 183.500 C 186.429 181.025, 188.191 179, 187.916 179 C 187.641 179, 185.429 181.025, 183 183.500 M 499.773 183.750 C 500.349 189.555, 500.834 189.978, 500.921 184.750 C 500.964 182.137, 500.640 180, 500.201 180 C 499.761 180, 499.569 181.688, 499.773 183.750 M 528.801 194.453 C 528.636 202.402, 528.813 208.590, 529.195 208.203 C 530.116 207.272, 530.702 179.996, 529.801 179.998 C 529.417 179.999, 528.967 186.504, 528.801 194.453 M 233.469 187.250 L 227.500 193.500 233.750 187.531 C 237.188 184.249, 240 181.436, 240 181.281 C 240 180.542, 239.013 181.444, 233.469 187.250 M 221 189.500 C 218.571 191.975, 216.809 194, 217.084 194 C 217.359 194, 219.571 191.975, 222 189.500 C 224.429 187.025, 226.191 185, 225.916 185 C 225.641 185, 223.429 187.025, 221 189.500 M 122.494 192.009 C 121.423 193.742, 122.861 196.459, 126.979 200.479 C 130.887 204.296, 130.981 204.327, 133.006 202.494 L 135.063 200.633 130.319 195.816 C 125.595 191.021, 123.681 190.089, 122.494 192.009 M 578 196.232 C 576.625 196.774, 574.682 198.307, 573.682 199.637 C 572.171 201.647, 572.046 202.602, 572.942 205.278 C 574.044 208.573, 579.592 213, 582.619 213 C 584.143 213, 588.020 216.542, 587.985 217.903 C 587.936 219.782, 585.826 221.235, 582.705 221.537 C 578.984 221.898, 577.466 220.853, 576.844 217.500 C 576.620 216.296, 575.682 215.500, 574.486 215.500 C 572.932 215.500, 572.545 216.104, 572.706 218.277 C 573.079 223.315, 580.158 227.595, 585.095 225.769 C 588.782 224.405, 592 220.913, 592 218.276 C 592 215.445, 589.229 209.740, 588.171 210.394 C 587.762 210.647, 585.194 209.649, 582.464 208.177 C 576.846 205.148, 575.466 201.891, 578.998 200.001 C 581.257 198.792, 586.916 199.543, 587.125 201.079 C 587.194 201.586, 587.306 202.563, 587.375 203.250 C 587.444 203.938, 588.513 204.644, 589.750 204.820 C 593.422 205.341, 592.762 200.659, 588.750 197.725 C 585.226 195.147, 581.918 194.688, 578 196.232 M 220.453 201.250 L 216.500 205.500 220.750 201.547 C 223.088 199.373, 225 197.460, 225 197.297 C 225 196.540, 224.129 197.298, 220.453 201.250 M 209.453 202.250 L 205.500 206.500 209.750 202.547 C 212.088 200.373, 214 198.460, 214 198.297 C 214 197.540, 213.129 198.298, 209.453 202.250 M 201 203.500 C 198.571 205.975, 196.809 208, 197.084 208 C 197.359 208, 199.571 205.975, 202 203.500 C 204.429 201.025, 206.191 199, 205.916 199 C 205.641 199, 203.429 201.025, 201 203.500 M 181.453 206.250 L 177.500 210.500 181.750 206.547 C 184.088 204.373, 186 202.460, 186 202.297 C 186 201.540, 185.129 202.298, 181.453 206.250 M 625.771 202.994 C 620.666 204.531, 619.813 206.313, 619.650 215.778 C 619.509 223.986, 619.626 224.518, 621.642 224.805 C 623.653 225.092, 623.805 224.623, 624.147 217.100 C 624.529 208.683, 625.187 207.234, 628.959 206.508 C 631.925 205.937, 632.381 205.435, 631.655 203.543 C 631.007 201.854, 629.899 201.751, 625.771 202.994 M 665.500 204.426 C 662.750 205.750, 660.950 206.878, 661.500 206.932 C 662.050 206.986, 661.888 207.418, 661.141 207.892 C 660.394 208.365, 659.562 210.721, 659.294 213.126 C 658.681 218.607, 661.318 222.350, 667.725 225.096 C 671.463 226.699, 672.819 226.823, 676.491 225.898 C 687.829 223.043, 691.100 209.151, 681.500 204.629 C 675.361 201.738, 671.192 201.685, 665.500 204.426 M 594.634 205.694 C 594.332 207.237, 594.231 211.130, 594.409 214.344 C 594.663 218.937, 595.254 220.709, 597.170 222.624 C 601.371 226.825, 607.487 227.294, 612.584 223.804 C 616.223 221.312, 616.876 219.443, 617.054 211 C 617.221 203.090, 617.198 203, 615 203 C 613.187 203, 612.997 203.677, 612.968 210.250 C 612.927 219.541, 611.604 221.533, 605.735 221.136 C 599.705 220.729, 598.796 219.413, 598.637 210.866 C 598.525 204.899, 598.191 203.471, 596.842 203.210 C 595.705 202.990, 595.011 203.771, 594.634 205.694 M 635.006 204.177 C 635.011 205.516, 635.924 209.231, 638.583 218.737 C 640.351 225.055, 643.970 227.695, 648.069 225.655 C 650.551 224.420, 654.262 215.154, 655.641 206.750 C 656.221 203.212, 656.107 203, 653.628 203 C 652.183 203, 651.053 203.338, 651.118 203.750 C 651.720 207.561, 650.766 209.919, 648.250 210.838 C 646.517 211.471, 646.147 211.871, 647.250 211.921 C 649.043 212.002, 649.754 215.912, 648.250 217.417 C 647.837 217.829, 647.500 218.692, 647.500 219.333 C 647.500 219.975, 646.487 220.644, 645.250 220.820 C 643.641 221.048, 642.981 220.620, 642.933 219.320 C 642.775 215.052, 638.293 203.489, 636.676 203.177 C 635.754 202.999, 635.003 203.449, 635.006 204.177 M 691 205.940 C 691 207.638, 691.401 209.809, 691.891 210.764 C 692.382 211.719, 693.537 215.111, 694.459 218.302 C 695.715 222.652, 696.769 224.393, 698.665 225.257 C 700.825 226.241, 701.117 226.892, 700.660 229.705 C 700.221 232.410, 700.448 233, 701.927 233 C 703.671 233, 706.980 226.475, 707.015 222.967 C 707.023 222.160, 707.741 219.475, 708.612 217 C 709.482 214.525, 710.380 211.375, 710.607 210 C 710.835 208.625, 711.258 206.454, 711.548 205.176 C 711.990 203.227, 711.719 202.904, 709.874 203.176 C 708.114 203.435, 707.285 204.804, 705.740 210 C 704.677 213.575, 703.822 217.287, 703.841 218.248 C 703.860 219.210, 703.022 220.453, 701.980 221.011 C 700.473 221.817, 699.862 221.610, 699.001 220.001 C 698.405 218.888, 698.007 217.420, 698.116 216.739 C 698.226 216.057, 697.974 214.720, 697.557 213.767 C 697.140 212.814, 696.233 210.114, 695.541 207.767 C 693.984 202.490, 691 201.290, 691 205.940 M 219 210.500 C 216.571 212.975, 214.809 215, 215.084 215 C 215.359 215, 217.571 212.975, 220 210.500 C 222.429 208.025, 224.191 206, 223.916 206 C 223.641 206, 221.429 208.025, 219 210.500 M 668.096 208.088 C 666.393 209.123, 665 210.410, 665 210.946 C 665 211.509, 668.594 211.892, 673.500 211.851 C 682.279 211.778, 683.616 211.084, 679.750 208.601 C 676.022 206.207, 671.515 206.009, 668.096 208.088 M 126.453 212.250 L 122.500 216.500 126.750 212.547 C 129.088 210.373, 131 208.460, 131 208.297 C 131 207.540, 130.129 208.298, 126.453 212.250 M 132 213.500 C 129.571 215.975, 127.809 218, 128.084 218 C 128.359 218, 130.571 215.975, 133 213.500 C 135.429 211.025, 137.191 209, 136.916 209 C 136.641 209, 134.429 211.025, 132 213.500 M 208.453 214.250 L 204.500 218.500 208.750 214.547 C 211.088 212.373, 213 210.460, 213 210.297 C 213 209.540, 212.129 210.298, 208.453 214.250 M 140.966 216.750 L 135.500 222.500 141.250 217.034 C 146.592 211.956, 147.458 211, 146.716 211 C 146.560 211, 143.972 213.588, 140.966 216.750 M 664.391 217.176 C 663.593 218.468, 668.454 220.950, 672.867 221.504 C 676.241 221.928, 677.787 221.576, 680.248 219.824 L 683.361 217.607 680.473 216.834 C 676.967 215.897, 665.025 216.150, 664.391 217.176 M 190 223.500 C 187.571 225.975, 185.809 228, 186.084 228 C 186.359 228, 188.571 225.975, 191 223.500 C 193.429 221.025, 195.191 219, 194.916 219 C 194.641 219, 192.429 221.025, 190 223.500 M 118.336 221.567 C 118.005 222.429, 118.219 223.619, 118.811 224.211 C 119.580 224.980, 119.716 224.630, 119.286 222.986 C 118.769 221.009, 118.989 220.764, 120.843 221.249 C 122.031 221.559, 122.751 221.405, 122.442 220.907 C 121.543 219.451, 118.990 219.862, 118.336 221.567 M 160.250 220.716 C 161.762 220.945, 164.238 220.945, 165.750 220.716 C 167.262 220.487, 166.025 220.300, 163 220.300 C 159.975 220.300, 158.738 220.487, 160.250 220.716 M 199.453 224.250 L 195.500 228.500 199.750 224.547 C 202.088 222.373, 204 220.460, 204 220.297 C 204 219.540, 203.129 220.298, 199.453 224.250 M 195.469 236.250 L 189.500 242.500 195.750 236.531 C 199.188 233.249, 202 230.436, 202 230.281 C 202 229.542, 201.013 230.444, 195.469 236.250" stroke="none" fill="#ecec8b" fill-rule="evenodd"/><path d="M 151 57.369 C 140.651 59.630, 134.810 63.634, 122.682 76.778 C 119.437 80.295, 117.077 82, 115.455 82 C 112.758 82, 109.636 85.893, 110.167 88.595 C 110.350 89.526, 111.650 91.145, 113.055 92.194 C 115.108 93.725, 116.135 93.899, 118.288 93.081 C 120.417 92.271, 121.105 91.193, 121.644 87.825 C 122.215 84.253, 123.590 82.312, 130.411 75.449 C 141.586 64.204, 147.193 61.566, 160 61.528 C 173.350 61.489, 177.525 63.689, 193.880 79.387 C 200.821 86.049, 206.654 91.850, 206.842 92.277 C 207.030 92.704, 205.568 94.843, 203.592 97.030 C 201.617 99.216, 200 101.408, 200 101.899 C 200 102.390, 202.579 105.201, 205.731 108.146 C 231.775 132.478, 234.948 136.426, 237.112 147.202 C 238.597 154.599, 236.341 163.605, 231.235 170.660 C 226.899 176.650, 200.773 205.330, 187.519 218.650 C 179.791 226.416, 177.600 228.041, 173.026 229.400 C 166.148 231.442, 159.567 231.432, 153.178 229.369 C 144.904 226.696, 141.927 229.673, 149.243 233.303 C 158.056 237.676, 172.417 236.310, 182.059 230.184 C 186.403 227.423, 220.478 191.161, 231.908 177.136 C 234.882 173.486, 238.440 168.025, 239.814 165 C 244.268 155.198, 242.678 141.318, 235.977 131.500 C 233.154 127.364, 221.432 115.800, 212.250 108.093 C 209.363 105.670, 207 102.942, 207 102.031 C 207 101.120, 208.350 99.081, 210 97.500 C 213.986 93.681, 213.798 91.042, 209.250 86.935 C 207.188 85.073, 200.980 79.262, 195.455 74.023 C 184.288 63.433, 176.547 58.732, 167.566 57.087 C 160.396 55.774, 158.127 55.812, 151 57.369 M 151.734 72.088 C 145.083 73.655, 139.753 77.081, 131.786 84.910 C 123.913 92.646, 122.774 94.592, 125.505 95.640 C 126.486 96.017, 130.153 93.227, 136.037 87.628 C 146.459 77.709, 151.867 75.347, 162.042 76.270 C 170.753 77.060, 175.988 79.957, 185.808 89.424 C 194.286 97.597, 197.099 99.267, 198.517 96.972 C 199.382 95.572, 185.804 81.728, 179.391 77.472 C 171.055 71.939, 160.823 69.947, 151.734 72.088 M 114.278 86.122 C 112.742 87.658, 113.811 90, 116.048 90 C 118.305 90, 119.204 88.695, 118.396 86.590 C 117.684 84.734, 115.872 84.528, 114.278 86.122 M 152.942 87.948 C 151.534 88.375, 149.284 89.310, 147.942 90.026 C 144.081 92.085, 133 103.147, 133 104.943 C 133 106.609, 142.860 117, 144.441 117 C 144.924 117, 147.914 114.525, 151.085 111.500 C 155.725 107.074, 157.506 106, 160.203 106 C 164.462 106, 166.206 107.251, 178.985 119.473 C 210.640 149.746, 209.979 148.963, 208.574 154.563 C 208.220 155.972, 205.246 160.011, 201.965 163.537 C 196.032 169.915, 194.934 172.223, 197.173 173.607 C 197.890 174.050, 200.971 171.579, 205.111 167.236 C 213.011 158.952, 214.800 154.684, 213.068 148.252 C 212.098 144.652, 209.079 141.387, 190.910 124.292 C 179.341 113.406, 168.441 103.731, 166.688 102.792 C 160.168 99.298, 153.604 101.165, 147.897 108.136 L 145.294 111.315 142.690 109.408 C 141.257 108.358, 139.825 106.859, 139.507 106.074 C 138.767 104.252, 146.245 96.484, 151.210 93.917 C 156.016 91.434, 166.173 91.376, 170.728 93.806 C 172.503 94.753, 181.278 102.507, 190.228 111.037 C 199.178 119.567, 209.085 128.961, 212.245 131.913 C 220.101 139.253, 223.463 146.221, 222.703 153.585 C 222.367 156.841, 221.076 160.901, 219.546 163.511 C 216.792 168.210, 204.097 182.762, 202.621 182.911 C 202.138 182.960, 199.999 181.425, 197.868 179.500 C 195.738 177.575, 193.340 176, 192.540 176 C 191.212 176, 179.823 187.238, 172.143 196.127 C 168.242 200.641, 164.257 202.428, 160.919 201.159 C 159.572 200.647, 156.161 198.152, 153.338 195.614 C 150.516 193.076, 147.768 191, 147.232 191 C 146.696 191, 141.208 196.627, 135.036 203.504 C 127.622 211.765, 122.912 216.205, 121.157 216.588 C 119.696 216.906, 117.994 217.319, 117.376 217.504 C 115.435 218.085, 114.652 225.080, 116.339 226.767 C 120.001 230.429, 127 226.908, 127 221.405 C 127 218.757, 145.483 198, 147.841 198 C 148.585 198, 151.238 199.800, 153.737 202 C 157.665 205.457, 158.921 206, 162.991 206 C 169.016 206, 172.789 203.273, 183.500 191.181 C 187.900 186.214, 191.895 182.116, 192.379 182.075 C 192.862 182.034, 195.001 183.575, 197.132 185.500 C 199.262 187.425, 201.634 189, 202.403 189 C 203.830 189, 212.881 180.023, 219.472 172.069 C 225.750 164.494, 227.441 160.342, 227.441 152.500 C 227.441 140.602, 224.656 136.808, 196.571 110.448 C 174.451 89.686, 170.310 86.967, 161 87.096 C 157.975 87.138, 154.349 87.521, 152.942 87.948 M 215.962 97.545 C 214.863 98.871, 216.234 100.540, 225.590 109.264 C 247.295 129.502, 251.321 135.207, 252.611 147.554 C 254.014 160.979, 249.234 171.113, 233.588 187.879 C 219.751 202.706, 214.954 207.906, 203.500 220.494 C 183.906 242.028, 179.319 245.090, 165.608 245.784 C 158.997 246.118, 156.421 245.787, 151.656 243.990 C 145.206 241.557, 135.500 234.255, 135.500 231.834 C 135.500 230.985, 138.363 227.229, 141.863 223.488 L 148.225 216.686 152.863 218.348 C 158.694 220.438, 167.264 220.470, 173.265 218.425 C 176.105 217.458, 179.948 214.855, 183.232 211.675 C 190.682 204.463, 199.144 194.043, 198.456 192.930 C 197.039 190.636, 194.010 192.632, 187.630 200.065 C 179.631 209.384, 174.058 213.530, 167.581 214.982 C 162.287 216.168, 159.483 215.746, 152.710 212.744 L 147.920 210.621 138.924 219.560 C 133.977 224.477, 129.649 229.599, 129.308 230.942 C 128.789 232.980, 129.609 234.241, 134.275 238.585 C 147.895 251.262, 166.512 254.348, 182.004 246.498 C 188.995 242.955, 191.656 240.401, 216.365 213.523 C 228.511 200.310, 240.336 187.475, 242.642 185 C 251.323 175.687, 255.204 168.758, 256.911 159.526 C 258.495 150.957, 258.288 148.013, 255.475 139.110 C 252.596 129.995, 248.671 124.482, 237.687 114.119 C 227.476 104.486, 218.083 96, 217.631 96 C 217.419 96, 216.668 96.695, 215.962 97.545 M 138.884 127.783 C 121.324 145.536, 118.482 149.365, 119.482 153.920 C 119.879 155.727, 125.742 162.365, 136.293 172.955 C 145.203 181.898, 153.690 190.067, 155.151 191.108 C 156.650 192.175, 159.485 193, 161.650 193 C 165.290 193, 166.274 192.196, 180.327 177.750 C 188.487 169.362, 196.476 160.745, 198.081 158.600 C 203.696 151.098, 201.332 145.430, 187.500 133.227 C 183.100 129.345, 177.169 123.669, 174.320 120.612 C 167.930 113.757, 163.554 111.011, 159 110.996 C 155.793 110.986, 154.108 112.392, 138.884 127.783 M 271.714 111.619 C 271.321 112.012, 271 126.448, 271 143.699 C 271 178.402, 271.216 179.825, 277.144 184.230 C 282.818 188.446, 286.186 189, 306.149 189 L 325 189 325 186.107 C 325 184.391, 324.356 182.967, 323.418 182.607 C 322.548 182.273, 314.111 181.998, 304.668 181.996 C 289.317 181.993, 287.156 181.783, 284.250 180.011 C 282.462 178.921, 280.903 177.910, 280.784 177.765 C 280.666 177.619, 280.328 162.650, 280.034 144.500 L 279.500 111.500 275.964 111.202 C 274.020 111.039, 272.107 111.226, 271.714 111.619 M 146.721 126.691 C 141.100 132.571, 134.310 139.659, 131.633 142.441 C 124.817 149.526, 123.643 151.473, 124.853 153.683 C 125.401 154.682, 133.226 162.813, 142.243 171.750 C 154.387 183.788, 159.267 188.001, 161.069 188.003 C 162.900 188.005, 167.383 183.996, 179.240 171.753 C 187.896 162.814, 195.250 154.520, 195.580 153.322 C 195.910 152.124, 195.915 150.308, 195.590 149.285 C 195.266 148.263, 187.584 140.355, 178.518 131.713 C 166.081 119.856, 161.411 116, 159.490 116 C 157.556 116, 154.479 118.577, 146.721 126.691 M 363.251 131.545 C 352.356 134.479, 342.892 141.460, 339.050 149.397 C 336.607 154.444, 336.286 164.356, 338.403 169.422 C 343.771 182.269, 360.990 190.782, 379.500 189.737 C 389.933 189.149, 396.386 187.162, 403.785 182.260 C 408.197 179.338, 415 171.639, 415 169.570 C 415 169.256, 413.069 169, 410.708 169 C 406.951 169, 405.874 169.553, 402.057 173.442 C 395.965 179.649, 389.509 182.242, 378.769 182.794 C 369.128 183.290, 362.833 181.814, 355.887 177.429 C 351.506 174.663, 346 167.658, 346 164.850 C 346 163.085, 347.626 163, 381.500 163 L 417 163 417 158.696 C 417 139.469, 388.078 124.860, 363.251 131.545 M 456.870 131 C 439.250 135.461, 426.966 148.693, 428.314 161.757 C 430.063 178.702, 449.441 191.138, 471.881 189.716 C 481.387 189.114, 488.115 187.119, 495.111 182.828 C 497.646 181.273, 500.009 180, 500.361 180 C 500.712 180, 501 182.051, 501 184.557 L 501 189.115 505.250 188.807 L 509.500 188.500 509.776 173.204 C 509.928 164.792, 509.592 156.199, 509.029 154.109 C 506.793 145.804, 498.759 138.075, 487.242 133.146 C 482.611 131.165, 479.469 130.631, 471 130.385 C 465.225 130.218, 458.867 130.494, 456.870 131 M 547.813 131.470 C 536.678 134.537, 526.915 141.519, 522.666 149.455 C 520.622 153.272, 520.483 155.037, 520.191 180.716 L 519.883 207.933 522.362 208.555 C 528.347 210.057, 528.475 209.773, 528.777 194.238 C 528.930 186.407, 529.330 180, 529.667 180 C 530.003 180, 532.416 181.315, 535.029 182.923 C 542.085 187.264, 548.498 189.156, 558.147 189.741 C 582.831 191.239, 604.101 175.346, 601.622 157.257 C 600.003 145.445, 588.062 134.559, 572.888 131.061 C 566.902 129.681, 553.516 129.899, 547.813 131.470 M 365.286 138.451 C 358.616 140.535, 352.166 144.788, 348.958 149.217 C 347.331 151.463, 346 153.908, 346 154.650 C 346 155.754, 351.562 156, 376.500 156 C 404.455 156, 407 155.859, 407 154.312 C 407 149.496, 397.784 141.565, 388.715 138.577 C 382.966 136.682, 371.148 136.619, 365.286 138.451 M 455.205 138.831 C 433.042 146.751, 431.158 169.621, 451.839 179.697 C 456.958 182.191, 458.552 182.457, 468.500 182.478 C 478.335 182.498, 480.098 182.220, 485.148 179.852 C 501.303 172.278, 505.492 157.436, 494.559 146.509 C 488.033 139.987, 482.208 137.762, 470.500 137.318 C 462.521 137.016, 459.430 137.321, 455.205 138.831 M 547.142 138.944 C 534.217 143.727, 527.313 153.950, 530.054 164.250 C 533.350 176.642, 546.462 183.764, 564.122 182.757 C 571.678 182.326, 573.706 181.793, 579.177 178.797 C 597.609 168.705, 597.180 149.879, 578.304 140.491 C 573.290 137.997, 571.140 137.561, 562.500 137.283 C 554.433 137.024, 551.464 137.345, 547.142 138.944 M 118.364 221.493 C 118.018 222.396, 118.214 223.614, 118.800 224.200 C 120.324 225.724, 123.210 224.331, 122.812 222.265 C 122.369 219.963, 119.165 219.407, 118.364 221.493" stroke="none" fill="#2275ae" fill-rule="evenodd"/></svg>